<?xml version="1.0" encoding="utf-8"?>
<!-- Generator: Adobe Illustrator 24.2.3, SVG Export Plug-In . SVG Version: 6.00 Build 0)  -->
<svg version="1.1" id="Layer_1" xmlns="http://www.w3.org/2000/svg" xmlns:xlink="http://www.w3.org/1999/xlink" x="0px" y="0px"
	 viewBox="0 0 100 100" style="enable-background:new 0 0 100 100;" xml:space="preserve">
<style type="text/css">
	.st0{fill:#4D4D4D;}
</style>
<path class="st0" d="M49.7,95.2c-24.8,0-45.1-20.3-45-45.1C4.6,25.2,24.9,4.9,49.8,5c24.8,0.1,45.1,20.3,45,45.2
	C94.7,75,74.5,95.3,49.7,95.2z M14.6,50.1c0,19.4,15.6,35.1,35,35.1c19.4,0,35-15.6,35.1-35.1C84.8,30.7,69.1,15,49.7,15
	C30.3,15,14.6,30.7,14.6,50.1z"/>
<path class="st0" d="M55.4,47.4c0.2-0.1,0.4-0.2,0.6-0.3c3.4-2.1,6.8-4.1,10.1-6.2c3.1-1.9,7-0.2,7.6,3.4c0.3,1.9-0.5,4-2.2,5
	c-6.2,3.8-12.4,7.7-18.6,11.4c-3.3,2-7.5-0.4-7.5-4.3c0-11.5,0-23,0-34.6c0-2.6,1.9-4.7,4.5-5c2.4-0.3,4.8,1.4,5.3,3.9
	c0.1,0.5,0.1,1.1,0.1,1.6c0,8.1,0,16.2,0,24.3C55.4,47,55.4,47.2,55.4,47.4z"/>
</svg>
