<?xml version="1.0" encoding="utf-8"?>
<!-- Generator: Adobe Illustrator 24.2.3, SVG Export Plug-In . SVG Version: 6.00 Build 0)  -->
<svg version="1.1" id="Layer_1" xmlns="http://www.w3.org/2000/svg" xmlns:xlink="http://www.w3.org/1999/xlink" x="0px" y="0px"
	 viewBox="0 0 1205.3 1068.8" style="enable-background:new 0 0 1205.3 1068.8;" xml:space="preserve">
<style type="text/css">
	.st0{fill:#4D4D4D;}
</style>
<path class="st0" d="M1202.9,621.6c4.9,27.7,3,52.8-13.9,75.2c-7.3,9.7-17.3,18.1-27.4,24.9c-124.3,83.3-249.1,166-373.4,249.4
	c-27,18.1-54.3,22.6-85.5,13.4c-90.7-26.7-182-51.7-272.6-78.8c-26-7.8-47.4-5.2-68.2,15.8c3.3,5.4,6.3,10.5,9.5,15.3
	c8.8,13.4,7.4,24.9-6.2,34c-46.4,31-92.8,61.9-139.2,92.7c-12.4,8.2-23.6,6.8-32.4-5.7c-5.1-7.2-12.4-14.1-13.9-22.1
	c-1.8-9.3,1.6-19.7,2.7-29.6c9.8,1.5,19.6,2.6,29.3,4.6c2.2,0.5,3.6,4.3,6.6,8.1c36.2-24.2,71.5-47.7,109.1-72.8
	C271.5,862.7,216.5,780,159.6,694.6c-36.7,24.4-72.3,48.2-109.7,73.1c30.1,45.2,59.3,89,88.5,132.8c5.7,8.5,14,16.6,16.1,26
	c2,9-2.6,19.5-4.3,29.3c-9.7-2.1-24.2-0.9-28.4-6.8C81.6,891.2,42.8,832.3,4,773.5c-7.9-11.9-3.6-22.7,7.7-30.3
	c45.1-30.3,89.5-61.6,135.8-89.9c18.8-11.5,25-15.4,48.6,19.1c16.8-10.9,33.7-21.8,50.6-32.9c34.2-22.6,67.6-46.6,102.8-67.6
	c37-22.1,76.5-18.7,116.2-5.9c102.4,33.1,205,65.3,307.2,98.8c45.4,14.9,69.3,61.2,56.5,105.2c-12.6,43.7-55.5,70-101.6,59.1
	c-54.2-12.7-107.8-28.3-161.7-42.5c-14.3-3.8-22.5-12.4-18.2-27.2c4-13.7,15.2-16.3,28.4-12.8c48.2,12.8,96.4,25.6,144.6,38.1
	c9.8,2.5,20.2,5.4,30.1,5C771.5,789,788,772.2,791,752c2.9-19.7-9.5-40.2-31.1-47.7c-37.4-12.9-75.3-24.5-113-36.6
	c-71.2-22.8-142-47.5-214.1-67c-19.5-5.3-46.7-0.9-64.5,9.4c-50.7,29.2-98.3,63.8-149.6,97.9c39.6,59.4,78.4,117.6,117.8,176.8
	c5.5-3,10-5,14.1-7.8c25.8-17.9,52.8-21.9,83.5-12.8c92.1,27.3,184.7,52.6,276.9,79.9c20.9,6.2,37.8,3.8,55.8-8.3
	c121.8-81.8,244-163,366.1-244.4c3.7-2.4,7.4-4.7,10.9-7.4c21.4-16.2,26.7-41.5,13.2-62c-14.2-21.6-40.2-26.9-63.8-11.5
	C1040.3,644.8,988,680.1,935.4,715c-13.8,9.1-29.9,24.5-43.2,3.5c-12.8-20.3,7-29.2,21-38.5c50.6-33.7,101.3-67.3,151.6-101.4
	c32.7-22.2,66.3-24.3,100.6-5.3c9,5,15.9,13.6,27.3,23.6"/>
<path class="st0" d="M815.9,62.6c72.4-73.1,159.6-75.4,225.5-41.3C1118.5,61.1,1155,151.6,1128,235
	c-22.4,69.1-69.6,120.8-124.7,164.1c-50.6,39.7-106,73.3-158.9,110c-17.6,12.2-32.6,10.9-52,0.9c-84.9-43.9-161.1-99-225.3-169.9
	c-34.8-38.5-62.9-81.4-70-134.5c-10.3-76.8,25.4-148.3,90.8-183C657.7-14.6,740.7-4.9,799,47.1C804.4,51.9,809.7,56.9,815.9,62.6z
	 M535.7,176.6c0.1,48.9,21.1,86.3,48.7,120.5C644.9,372,723.1,425,805.9,471.6c5.8,3.3,17.6,2.1,23.3-1.8
	c54.9-37.6,110.7-74.3,163.1-115.3c38.2-29.9,69.5-67.6,89.8-112.6c22.6-50.1,19.6-99.3-12.8-143.8c-31.9-43.9-77.3-61.8-131-55.9
	c-43.3,4.7-76.4,27.4-102,62.2c-13.6,18.4-26,18-40.4,0.6c-7.5-9-14.7-18.5-23.4-26.2c-45.7-40-97.7-49.3-153.4-25.5
	C564.2,76.5,538.5,120.9,535.7,176.6z"/>
<path class="st0" d="M586,170.4c1.2-48.2,34.6-84,80.5-88.2c12.9-1.2,24.7,0.9,27.3,15.3c2.7,15-5.9,21.8-20.8,24.8
	c-33.8,6.8-43,17-46.5,51.3c-1.5,14.5-6.2,25.3-21.7,24.1C587.8,196.5,584.8,183.3,586,170.4z"/>
</svg>
