<?xml version="1.0" encoding="utf-8"?>
<!-- Generator: Adobe Illustrator 24.2.3, SVG Export Plug-In . SVG Version: 6.00 Build 0)  -->
<svg version="1.1" id="Capa_1" xmlns="http://www.w3.org/2000/svg" xmlns:xlink="http://www.w3.org/1999/xlink" x="0px" y="0px"
	 viewBox="0 0 432.3 432.3" style="enable-background:new 0 0 432.3 432.3;" xml:space="preserve">
<style type="text/css">
	.st0{fill:#4D4D4D;}
</style>
<path id="XMLID_5_" class="st0" d="M93.3,248.3c-1.5,1.2-3.2,1.8-5,1.8c-2.3,0-4.7-1-6.2-3l-1.1-1.4c-1.2-1.5-1.8-3.2-1.8-5
	c0-2.3,1-4.7,3-6.3c3.4-2.8,8.5-2.2,11.2,1.2l1.1,1.4c1.2,1.5,1.8,3.2,1.8,5C96.3,244.4,95.3,246.7,93.3,248.3z M116.1,289.5
	c1.6,2,3.9,3,6.3,3c1.8,0,3.5-0.6,5-1.8c2-1.6,3-3.9,3-6.3c0-1.8-0.6-3.5-1.8-5l-1.1-1.4c-2.8-3.5-7.8-4-11.2-1.2
	c-2,1.6-3,3.9-3,6.3c0,1.8,0.6,3.5,1.8,5L116.1,289.5z M112.9,252.1c1.8,0,3.5-0.6,5-1.8c2-1.6,3-3.9,3-6.3c0-1.8-0.6-3.5-1.8-5
	l-1.1-1.4c-2.8-3.4-7.8-4-11.2-1.2c-2,1.6-3,3.9-3,6.2c0,1.8,0.6,3.5,1.8,5l1.1,1.4C108.2,251.1,110.5,252.1,112.9,252.1z
	 M92.6,273.9c1.6,2,3.9,3,6.2,3c1.8,0,3.5-0.6,5-1.8c2-1.6,3-3.9,3-6.3c0-1.8-0.6-3.5-1.8-5l-1.1-1.4c-2.8-3.4-7.8-4-11.2-1.2
	c-2,1.6-3,3.9-3,6.3c0,1.8,0.6,3.5,1.8,5L92.6,273.9z M6.9,189.4C-4,175.8-1.8,156,11.8,145.1c6.7-5.4,15.1-7.7,23.2-6.7
	c0.9-8.1,4.9-15.8,11.6-21.2c13.6-10.9,33.4-8.7,44.3,4.9c9.1,11.4,9,27.3,0.7,38.5l14.1,17.6l6.3-5.1c1.7-1.4,4-2,6.2-1.7
	c3.1,0.5,6.3,1.2,9.4,2c4.3,1.2,6.7,5.6,5.5,9.9c-1.2,4.3-5.6,6.7-9.9,5.5c-1.4-0.4-2.7-0.7-4.1-1l-54.3,43.5
	c-0.1,8.9,1.7,18.2,5.4,27.3c1.6,4.1-0.4,8.8-4.5,10.4c-1,0.4-2,0.6-3,0.6c-3.2,0-6.2-1.9-7.4-5c-5-12.4-7.2-25.5-6.3-37.7
	c0.2-2.2,1.2-4.3,3-5.7l6.3-5.1l-14.1-17.6C31.5,204.1,16,200.8,6.9,189.4z M41.2,181.8c1.5-1.2,3.2-1.8,5-1.8c2.3,0,4.7,1,6.2,3
	l18.5,23.1l22.3-17.9l-18.5-23.1c-1.3-1.7-1.9-3.8-1.7-5.9c0.2-2.1,1.3-4,2.9-5.4c6.7-5.3,7.7-15.1,2.4-21.8
	c-5.3-6.7-15.1-7.7-21.8-2.4c-5.2,4.2-7.2,11.2-4.8,17.5c1.2,3.2,0.2,6.9-2.5,9c-2.7,2.2-6.5,2.3-9.4,0.5
	c-5.6-3.7-12.9-3.3-18.1,0.9c-6.7,5.3-7.7,15.1-2.4,21.8C24.7,186.1,34.5,187.1,41.2,181.8z M172,195.4v13.8c0,4.4,3.6,8,8,8
	s8-3.6,8-8v-13.8c0-4.4-3.6-8-8-8S172,191,172,195.4z M261.9,201c-5.8-4.5-12-6.8-18.2-6.9c-0.1,0-0.2,0-0.3,0
	c-10.6,0.2-21.1,7-29.7,19.3c-12.9,18.5-21.5,49.9-13,74.2c1.2,3.3,4.2,5.4,7.5,5.4c0.9,0,1.8-0.1,2.6-0.5c4.2-1.5,6.4-6,4.9-10.2
	c-6.4-18.3,0.6-44.7,11-59.7c5.4-7.8,11.5-12.3,16.7-12.4c2.7,0.1,5.6,1.3,8.6,3.6c3.5,2.7,8.5,2,11.2-1.5
	C266,208.7,265.4,203.7,261.9,201z M317.8,284.8c4.4,0.1,8.1-3.4,8.2-7.8c0.6-23.4-7.3-49.9-26-56.3c-0.1,0-0.2-0.1-0.3-0.1
	c-8.4-2.5-18-0.8-27.9,5.1c-18.5,11-35.3,35-40,57.1c-0.9,4.3,1.9,8.6,6.2,9.5c0.6,0.1,1.1,0.2,1.7,0.2c3.7,0,7-2.6,7.8-6.4
	c3.7-17.8,17.7-37.9,32.5-46.6c5.8-3.4,11.1-4.7,15-3.5c9.1,3.2,15.5,20.7,15.1,40.7C309.9,281,313.4,284.7,317.8,284.8z M79.4,98.2
	c1.1,0.5,2.3,0.8,3.5,0.8c3,0,5.8-1.7,7.2-4.5c0.3-0.7,4.3-10.8,4.6-11.6c18.8-35.9,54.7-59.7,98.6-65.4
	c45.8-5.8,91.7,9.9,119.8,41.1c3,3.3,8,3.5,11.3,0.6c3.3-3,3.5-8,0.6-11.3C309,30.1,287.8,16.4,263.7,8.5c-22.9-7.6-48-10-72.4-6.8
	c-49.3,6.3-89.7,33.2-110.8,74c-0.4,0.8-4.6,11.4-4.8,12C73.8,91.5,75.4,96.2,79.4,98.2z M245.6,167.5c3,3.2,2.9,8.3-0.3,11.3
	c-3.2,3-8.3,2.9-11.3-0.3c-2.9-3-6.5-5-10.5-5.8c-3.7-0.8-6.4-4-6.4-7.8v-10.4h-35.2v10.4c0,3.8-2.7,7.1-6.4,7.8
	c-9.3,1.9-16,10.1-16,19.5v90.4c0,4.4-3.6,8-8,8s-8-3.6-8-8v-90.4c0-14.7,9.1-27.8,22.4-33.2v-8.8c-3.8-3.3-6.2-8.1-6.2-13.5V126
	c0-9.8,8-17.8,17.8-17.8h44c9.8,0,17.8,8,17.8,17.8v10.5c0,5.4-2.4,10.3-6.2,13.5v8.7C237.8,160.8,242.1,163.7,245.6,167.5z
	 M223.3,126c0-1-0.8-1.8-1.8-1.8h-44c-1,0-1.8,0.8-1.8,1.8v10.5c0,0.7,0.5,1.4,1.1,1.7c0,0,0,0,0.1,0c0.2,0.1,0.4,0.1,0.6,0.1h44
	c0.2,0,0.4,0,0.6-0.1c0,0,0.1,0,0.1,0c0.7-0.3,1.1-0.9,1.1-1.7L223.3,126L223.3,126z M395.9,287.4c-0.4,17.9-12.1,41-31.9,63.3
	c-19.4,21.7-44.3,40.3-70.6,52.9v20.5c0,4.4-3.6,8-8,8H139.3c-4.4,0-8-3.6-8-8v-20.5C104.9,391,80,372.3,60.7,350.7
	c-19.9-22.3-31.5-45.3-31.9-63.3c-0.1-3.1,1.7-6,4.5-7.4c2.8-1.4,6.2-1,8.6,1c3.5,2.8,16.4,10,61.3,15.4
	c30.4,3.7,69.2,5.7,109.3,5.7s78.8-2,109.2-5.7c44.9-5.4,57.8-12.6,61.3-15.4c2.4-2,5.8-2.4,8.6-1
	C394.2,281.4,396,284.3,395.9,287.4z M277.4,406.4H147.3v9.6h130.1L277.4,406.4L277.4,406.4z M376.8,301.7
	c-44.5,15.6-142.7,16.5-164.5,16.5s-120-0.9-164.5-16.5c2.6,7,6.7,14.7,12.2,22.5c0.1,0.2,0.3,0.3,0.4,0.5c1.2,1.5,3.6,4,7.2,4
	c3.2,0,6.2-2,8.3-5.5c2.3-3.8,7.2-5,11-2.8c3.8,2.3,5,7.2,2.8,11c-3.4,5.7-8.4,9.9-14.1,11.9c5.8,6.2,12.4,12.4,19.5,18.2
	c2.5-2.8,6.7-3.6,10.1-1.6c3.8,2.3,5,7.2,2.8,11c-0.1,0.1-0.1,0.2-0.2,0.3c10.3,7.3,21.5,13.9,33.3,19.3h142.7
	c11.1-5.1,21.6-11.2,31.4-18c-0.4-0.5-0.7-1.1-1.1-1.7c-2.3-3.8-1-8.7,2.8-11c3.8-2.3,8.7-1,11,2.8c0.1,0.1,0.1,0.2,0.2,0.3
	c7.8-6.3,15-13,21.3-19.8c-5.5-2-10.4-6.2-13.8-11.8c-2.3-3.8-1-8.7,2.8-11c3.8-2.3,8.7-1,11,2.8c2.1,3.5,5.1,5.5,8.2,5.5
	c2.6,0,4.6-1.3,5.9-2.6C369.4,317.5,374,309.3,376.8,301.7z M385.3,114.2c-3.8-2.2-8.7-1-11,2.8l-1,1.7c-0.8,1.3-1.1,2.7-1.1,4.1
	c0,2.7,1.4,5.4,3.9,6.9c1.3,0.8,2.7,1.1,4.1,1.1c2.7,0,5.4-1.4,6.9-3.9l1-1.7c0.8-1.3,1.1-2.7,1.1-4.1
	C389.2,118.4,387.8,115.7,385.3,114.2z M363.4,129.8c-3.8-2.2-8.7-1-11,2.8l-1,1.7c-0.7,1.3-1.1,2.7-1.1,4c0,2.7,1.4,5.4,3.9,6.9
	c1.3,0.7,2.7,1.1,4,1.1c2.7,0,5.4-1.4,6.9-3.9l1-1.7c0.7-1.3,1.1-2.7,1.1-4C367.3,133.9,365.9,131.3,363.4,129.8z M366.4,103.1
	c-3.8-2.2-8.7-1-11,2.8l-1,1.7c-0.8,1.3-1.1,2.7-1.1,4.1c0,2.7,1.4,5.4,3.9,6.9c1.3,0.8,2.7,1.1,4.1,1.1c2.7,0,5.4-1.4,6.9-3.9
	l1-1.7c0.8-1.3,1.1-2.7,1.1-4.1C370.3,107.2,368.9,104.6,366.4,103.1z M431.9,134.2c-9.7,29.6-24.6,61.8-43.2,93.3
	c-7.9,13.4-16.3,26.4-25,38.6c-1.6,2.2-4,3.4-6.5,3.4c-1.6,0-3.2-0.5-4.6-1.5c-3.6-2.6-4.5-7.5-1.9-11.2
	c8.4-11.9,16.6-24.5,24.3-37.5c15.1-25.6,27.7-51.7,36.9-76.3c-2.2,0.8-4.5,1.7-6.8,2.8c-0.3,0.1-0.5,0.3-0.8,0.4
	c-22.2,10.3-50,31.8-77.7,60.5c-0.8,2.3-1.6,4.6-2.5,7c-1.5,4.2-6.1,6.3-10.2,4.8c-4.2-1.5-6.3-6.1-4.8-10.2c1-2.8,2-5.5,2.9-8.2
	c0-0.1,0.1-0.2,0.1-0.4c13.5-39.7,20.8-76.1,20.5-101.7c0-0.3,0-0.6,0-0.9c0-0.5,0-1,0-1.5c-15.8,19.7-31.5,42.4-45.8,66.7
	c-4.3,7.3-8.5,14.7-12.4,22.1c-2.1,3.9-6.9,5.4-10.8,3.3c-3.9-2.1-5.4-6.9-3.3-10.8c4-7.5,8.3-15.2,12.7-22.6
	c18.3-31,38.8-59.7,59.1-82.9c2-2.2,5-3.2,7.9-2.5c2.9,0.7,5.1,2.9,5.9,5.8c0.5,1.9,0.9,3.9,1.3,6.1c23.4-19.8,42.5-26.1,55.9-18.2
	c17.2,10.1,15.9,37.8,9.9,63.6c3.6-1,7.1-1.8,10.3-2.1c2.7-0.3,5.4,0.8,7.1,2.9C432.3,128.7,432.8,131.6,431.9,134.2z M395,76.1
	c-6-3.5-21.6,1-46.4,24.7c-0.2,20.4-4.3,45.8-12.1,74c20.6-18.6,40.5-32.9,58.1-41.6C404.3,99.3,401.9,80.1,395,76.1z M387.2,89.4
	c-3.8-2.2-8.7-1-11,2.8l-1,1.7c-0.8,1.3-1.1,2.7-1.1,4.1c0,2.7,1.4,5.4,3.9,6.9c1.3,0.8,2.7,1.1,4.1,1.1c2.7,0,5.4-1.4,6.9-3.9
	l1-1.7c0.8-1.3,1.1-2.7,1.1-4.1C391.1,93.6,389.7,90.9,387.2,89.4z M142.7,337.6c2.3-3.8,1-8.7-2.8-11c-3.8-2.3-8.7-1-11,2.8
	c-2.1,3.5-5.1,5.5-8.3,5.5c-3.2,0-6.2-2-8.2-5.5c-2.3-3.8-7.2-5-11-2.8c-3.8,2.3-5,7.2-2.8,11c5,8.3,13.2,13.3,22,13.3
	C129.5,350.8,137.7,345.9,142.7,337.6z M202.8,337.6c2.3-3.8,1-8.7-2.8-11c-3.8-2.3-8.7-1-11,2.8c-2.1,3.5-5.1,5.5-8.3,5.5
	s-6.2-2-8.2-5.5c-2.3-3.8-7.2-5-11-2.8c-3.8,2.3-5,7.2-2.8,11c5,8.3,13.2,13.3,22,13.3C189.7,350.8,197.9,345.9,202.8,337.6z
	 M301.1,350.8c8.8,0,17-5,22-13.3c2.3-3.8,1-8.7-2.8-11c-3.8-2.3-8.7-1-11,2.8c-2.1,3.5-5.1,5.5-8.3,5.5c-3.2,0-6.2-2-8.2-5.5
	c-2.3-3.8-7.2-5-11-2.8s-5,7.2-2.8,11C284.1,345.9,292.3,350.8,301.1,350.8z M167.6,359.9c-3.8-2.3-8.7-1-11,2.8
	c-2.1,3.5-5.1,5.5-8.3,5.5c-3.2,0-6.2-2-8.3-5.5c-2.3-3.8-7.2-5-11-2.8c-3.8,2.3-5,7.2-2.8,11c5,8.3,13.2,13.3,22,13.3
	c8.8,0,17-5,22-13.3C172.7,367,171.4,362.1,167.6,359.9z M202.7,362.6c-2.3-3.8-7.2-5-11-2.8c-3.8,2.3-5,7.2-2.8,11
	c5,8.3,13.2,13.3,22,13.3c8.8,0,17-5,22-13.3c2.3-3.8,1-8.7-2.8-11c-3.8-2.3-8.7-1-11,2.8c-2.1,3.5-5.1,5.5-8.3,5.5
	C207.8,368.1,204.8,366.1,202.7,362.6z M241,350.8c8.8,0,17-5,22-13.3c2.3-3.8,1-8.7-2.8-11c-3.8-2.3-8.7-1-11,2.8
	c-2.1,3.5-5.1,5.5-8.3,5.5s-6.2-2-8.2-5.5c-2.3-3.8-7.2-5-11-2.8c-3.8,2.3-5,7.2-2.8,11C224,345.9,232.2,350.8,241,350.8z
	 M254.2,359.9c-3.8,2.3-5,7.2-2.8,11c5,8.3,13.2,13.3,22,13.3s17-5,22-13.3c2.3-3.8,1-8.7-2.8-11c-3.8-2.3-8.7-1-11,2.8
	c-2.1,3.5-5.1,5.5-8.3,5.5s-6.2-2-8.2-5.5C262.9,358.8,258,357.6,254.2,359.9z"/>
</svg>
