<?xml version="1.0" encoding="utf-8"?>
<!-- Generator: Adobe Illustrator 24.2.3, SVG Export Plug-In . SVG Version: 6.00 Build 0)  -->
<svg version="1.1" id="Layer_1" xmlns="http://www.w3.org/2000/svg" xmlns:xlink="http://www.w3.org/1999/xlink" x="0px" y="0px"
	 viewBox="0 0 100 100" style="enable-background:new 0 0 100 100;" xml:space="preserve">
<style type="text/css">
	.st0{fill:#4D4D4D;}
</style>
<path class="st0" d="M95,15.9c0,22.6,0,45.3,0,67.9c-0.3,1.6-0.9,3-1.9,4.3C90.1,92,86,94,81,94c-20.1,0-40.2,0-60.4,0
	c-4.4,0-8-1.7-11.1-4.8c-1.8-1.8-3-3.9-3-6.6c0-21.9,0-43.8,0-65.7c0-1.6,0.4-3.2,1.3-4.5c3-4.5,7.2-6.8,12.6-6.8
	c20.2,0,40.4,0,60.7,0c3.9,0,7.3,1.4,10.2,4C93.2,11.3,94.5,13.3,95,15.9z M13.4,49.8c0,10,0,19.9,0,29.9c0,1.5,0.4,2.9,1.3,4.1
	c2.3,3,5.3,4.6,9.1,4.6c18,0,36,0,54,0c2.9,0,5.4-1,7.5-2.8c1.7-1.5,2.9-3.3,2.9-5.6c0-20,0-40.1,0-60.1c0-1.2-0.3-2.4-1-3.4
	c-2.2-3.4-5.4-5.2-9.4-5.2c-17.9,0-35.9,0-53.8,0c-2.3,0-4.5,0.6-6.4,1.9c-2.8,1.8-4.4,4.2-4.3,7.7C13.4,30.5,13.4,40.1,13.4,49.8z"
	/>
<path class="st0" d="M77.9,46.4c-18.2,0-36.3,0-54.4,0c0,2.3,0,4.5,0,6.8c18.1,0,36.2,0,54.4,0C77.9,51,77.9,48.7,77.9,46.4z
	 M77.9,29.4c-18.1,0-36.2,0-54.3,0c0,2.3,0,4.6,0,6.8c18.1,0,36.2,0,54.3,0C77.9,34,77.9,31.7,77.9,29.4z M77.9,63.4
	c-18.2,0-36.3,0-54.4,0c0,2.3,0,4.5,0,6.8c18.1,0,36.2,0,54.4,0C77.9,67.9,77.9,65.7,77.9,63.4z"/>
<path class="st0" d="M77.9,46.4c0,2.3,0,4.5,0,6.8c-18.1,0-36.2,0-54.4,0c0-2.3,0-4.5,0-6.8C41.7,46.4,59.8,46.4,77.9,46.4z"/>
<path class="st0" d="M77.9,29.4c0,2.3,0,4.5,0,6.8c-18.1,0-36.2,0-54.3,0c0-2.3,0-4.5,0-6.8C41.7,29.4,59.8,29.4,77.9,29.4z"/>
<path class="st0" d="M77.9,63.4c0,2.3,0,4.5,0,6.8c-18.1,0-36.2,0-54.4,0c0-2.3,0-4.5,0-6.8C41.7,63.4,59.8,63.4,77.9,63.4z"/>
</svg>
