<?xml version="1.0" encoding="utf-8"?>
<!-- Generator: Adobe Illustrator 24.2.3, SVG Export Plug-In . SVG Version: 6.00 Build 0)  -->
<svg version="1.1" id="Capa_1" xmlns="http://www.w3.org/2000/svg" xmlns:xlink="http://www.w3.org/1999/xlink" x="0px" y="0px"
	 viewBox="0 0 58.3 58.3" style="enable-background:new 0 0 58.3 58.3;" xml:space="preserve">
<style type="text/css">
	.st0{fill:#FFFFFF;}
</style>
<g>
	<g>
		<path class="st0" d="M33.5,36.5c0.1-0.4,0.2-0.9,0.2-1.4c0.4-8.8-4.4-16.1-11.7-20.7c-4.3-2.8-8.4,0.3-9.4,4.1
			c-2.7-2.1-7.3,1.1-5.2,4.5c0.1,0.1,0.2,0.3,0.2,0.4c-2.1,0-8.7,0-6.9,0c2.2,0,7.5,6,7.5,6v-5c1.6,2.5,3.7,4.8,6.8,5.2
			c1.4,0.2,2.6-0.3,3.5-1c1.2,1.5,1.8,3.1,1.9,5.1c-1.1,0-2.1,0-3.2,0.2c-3.7,0.4-6,1.2-6.7,5.1c-1.1,5.8,1.9,10.1,5.2,14.5
			c2.7,3.6,8.8,0.1,6.1-3.6c-2.2-3-4.4-5.5-4.3-9c2.2-0.3,4.3-0.2,6.5,0c1.1,0.5,2.3,0.6,3.5,0.6c1.8,6,5.2,11.3,9.5,15.8
			c3.2,3.3,8.1-1.7,5-5C37.6,47.8,34.7,42.6,33.5,36.5z"/>
		<path class="st0" d="M6.8,8c0,0.1,0,0.2,0,0.3c0.4,3.3,3.5,5.5,6.7,5.1c3.3-0.4,5.5-3.5,5.1-6.7C18.5,6,18.3,5.3,18,4.7
			c0.2-0.1,0.3-0.3,0.2-0.8l-0.2-1.4c-0.2-1.6-1.7-2.7-3.3-2.5L8.5,0.9C6.9,1.1,5.7,2.6,6,4.2l0.2,1.2C5.2,6,4.5,6.9,4.6,7.9
			C4.8,8.7,5.7,8.5,6.8,8z"/>
		<path class="st0" d="M22.9,13.4c0,0,14.3,7.7,12.6,18.9c-3.7,9.4,12.4,19.1,21.2-2.6C56.7,29.7,67.9,0,22.9,13.4z M47.1,31.1v1.8
			h-1.9v-1.7c-0.9-0.1-1.8-0.4-2.4-0.8l-0.3-0.2l0.7-2l0.5,0.3c0.6,0.4,1.4,0.6,2.2,0.6c0.9,0,1.5-0.5,1.5-1.2c0-0.5-0.2-1-1.6-1.6
			c-1.5-0.6-3-1.4-3-3.3c0-1.5,1-2.6,2.5-3v-1.8h1.9V20c0.7,0.1,1.4,0.3,1.9,0.6l0.3,0.2l-0.7,1.9l-0.5-0.3C48,22.3,47.4,22,46.4,22
			c-1,0-1.3,0.5-1.3,1c0,0.5,0.3,0.9,1.8,1.5c1.3,0.5,2.9,1.4,2.9,3.5C49.7,29.5,48.7,30.7,47.1,31.1z"/>
	</g>
</g>
</svg>
