<svg xmlns="http://www.w3.org/2000/svg" xmlns:xlink="http://www.w3.org/1999/xlink" width="375" height="812" viewBox="0 0 375 812">
  <defs>
    <filter id="_19:00" x="116" y="599" width="56" height="40" filterUnits="userSpaceOnUse">
      <feOffset dy="3" input="SourceAlpha"/>
      <feGaussianBlur stdDeviation="3" result="blur"/>
      <feFlood flood-opacity="0.161"/>
      <feComposite operator="in" in2="blur"/>
      <feComposite in="SourceGraphic"/>
    </filter>
    <clipPath id="clip-iPhone_X_XS_11_Pro_1">
      <rect width="375" height="812"/>
    </clipPath>
  </defs>
  <g id="iPhone_X_XS_11_Pro_1" data-name="iPhone X, XS, 11 Pro – 1" clip-path="url(#clip-iPhone_X_XS_11_Pro_1)">
    <rect width="375" height="812" fill="#fff"/>
    <g id="Content" transform="translate(-183 180.221)">
      <g id="iPhone" transform="translate(186.514 -125)">
        <path id="Bezel" d="M1304.625,986.939V868.9c0-30.31-24.139-54.9-53.905-54.9H994.46c-29.766,0-53.889,24.592-53.889,54.9v46.732A5.342,5.342,0,0,0,937,920.683v18.663a5.348,5.348,0,0,0,3.571,5.068v21.733A5.349,5.349,0,0,0,937,971.215v47.4a5.327,5.327,0,0,0,3.571,5.052v13.888A5.343,5.343,0,0,0,937,1042.6V1090a5.348,5.348,0,0,0,3.571,5.068V1512.1c0,30.322,24.127,54.9,53.889,54.9h256.26c29.771,0,53.905-24.588,53.905-54.919V1076.7a5.325,5.325,0,0,0,3.858-5.149V992.088A5.325,5.325,0,0,0,1304.625,986.939Zm-7.127,525.809c0,26.281-20.918,47.593-46.714,47.593H994.412c-25.812,0-46.73-21.311-46.73-47.593v-644.5c0-26.281,20.918-47.593,46.73-47.593h256.372c25.8,0,46.714,21.311,46.714,47.593Z" transform="translate(-936.997 -813.997)"/>
        <path id="Bezel-2" data-name="Bezel" d="M1277.3,836H1021.4c-25.765,0-46.644,21.3-46.644,47.566V1527.7c0,26.267,20.879,47.566,46.644,47.566h255.9c25.749,0,46.628-21.3,46.628-47.566V883.561C1323.923,857.294,1303.044,836,1277.3,836Zm36.554,693c0,19.205-15.261,34.773-34.1,34.773H1018.932c-18.826,0-34.088-15.568-34.088-34.773V882.263c0-19.205,15.262-34.773,34.088-34.773h35.122v.292a4.947,4.947,0,0,1,4.885,4.984,21.21,21.21,0,0,0,6.031,14.87,20.342,20.342,0,0,0,14.561,6.153h138.722a20.81,20.81,0,0,0,20.593-21.023,5.037,5.037,0,0,1,1.448-3.523,4.836,4.836,0,0,1,3.453-1.461v-.292h36c18.842,0,34.1,15.568,34.1,34.773Z" transform="translate(-963.603 -829.499)" fill="#010003"/>
        <path id="Shape_5" data-name="Shape 5" d="M0,176.336V126.751a3.952,3.952,0,0,1,3.9-4v57.583A3.952,3.952,0,0,1,0,176.336ZM367.583,71.72a3.952,3.952,0,0,1,3.9,4v82.116a3.952,3.952,0,0,1-3.9,4ZM0,104.378V54.793a3.952,3.952,0,0,1,3.9-4v57.583A3.952,3.952,0,0,1,0,104.378ZM0,24.959V4A3.952,3.952,0,0,1,3.9,0V28.958A3.952,3.952,0,0,1,0,24.959Z" transform="translate(0 100.671)"/>
        <path id="Shape_6" data-name="Shape 6" d="M.314,18.328a6.458,6.458,0,0,1,4.1-8.121,6.371,6.371,0,0,1,8.045,4.136,6.458,6.458,0,0,1-4.1,8.121,6.326,6.326,0,0,1-1.975.317A6.392,6.392,0,0,1,.314,18.328ZM111.58,15.736a6.444,6.444,0,1,1,6.444,6.385A6.414,6.414,0,0,1,111.58,15.736ZM58.493,18.285a3,3,0,0,1,0-5.995H97.685a3,3,0,0,1,0,5.995ZM58.048,8.093a4.047,4.047,0,0,1,0-8.093H98.131a4.047,4.047,0,0,1,0,8.093Z" transform="translate(106.783 14.616)" fill="#484450"/>
      </g>
      <g id="Group_1" data-name="Group 1" transform="translate(237.261 -60.548)">
        <path id="Path_1" data-name="Path 1" d="M160.843,15.947a4.134,4.134,0,0,0,4.438-3.551h-1.845a2.487,2.487,0,0,1-2.593,1.925c-1.786,0-2.9-1.489-2.9-3.878s1.111-3.871,2.89-3.871a2.545,2.545,0,0,1,2.592,2.084h1.845a4.222,4.222,0,0,0-4.437-3.711c-2.971,0-4.808,2.1-4.808,5.5S157.873,15.947,160.843,15.947Zm6.406-.261h1.8V11.074a1.751,1.751,0,0,1,1.845-1.939c1.045,0,1.6.625,1.6,1.852v4.7h1.8v-5.12c0-1.888-1.031-2.963-2.731-2.963a2.436,2.436,0,0,0-2.411,1.431h-.131V4.676h-1.772Zm14.358-2.171a1.764,1.764,0,0,1-1.772.93,1.99,1.99,0,0,1-1.99-2.186v-.094h5.549V11.59c0-2.491-1.358-3.994-3.624-3.994-2.3,0-3.733,1.605-3.733,4.154s1.409,4.1,3.747,4.1c1.874,0,3.2-.9,3.53-2.331ZM179.762,9a1.812,1.812,0,0,1,1.83,1.968h-3.741A1.912,1.912,0,0,1,179.762,9Zm12.3,1.4A3.161,3.161,0,0,0,188.6,7.6c-2.389,0-3.791,1.532-3.791,4.1,0,2.6,1.409,4.147,3.8,4.147a3.145,3.145,0,0,0,3.457-2.76H190.35a1.61,1.61,0,0,1-1.75,1.278c-1.227,0-1.968-.98-1.968-2.665,0-1.656.734-2.629,1.968-2.629a1.654,1.654,0,0,1,1.75,1.329Zm3.718.6h-.124V4.676h-1.8v11.01h1.8V12.9l.64-.639,2.549,3.428h2.178l-3.384-4.532,3.166-3.406h-2.092Zm9.622,4.844c2.375,0,3.82-1.554,3.82-4.132S207.773,7.6,205.405,7.6s-3.82,1.561-3.82,4.118C201.585,14.291,203.023,15.845,205.405,15.845Zm0-1.474c-1.256,0-1.975-.973-1.975-2.651s.719-2.651,1.975-2.651,1.968.973,1.968,2.651S206.662,14.371,205.405,14.371Zm12.55-6.623h-1.8v4.626a1.7,1.7,0,0,1-1.809,1.925c-1.074,0-1.576-.6-1.576-1.83V7.748h-1.8V12.9c0,1.859,1.016,2.941,2.752,2.941a2.341,2.341,0,0,0,2.375-1.423h.123v1.264h1.736ZM220.737,5.8v2H219.48V9.2h1.257V13.58c0,1.532.726,2.142,2.549,2.142a5.141,5.141,0,0,0,.944-.08v-1.38a5.18,5.18,0,0,1-.61.036c-.755,0-1.089-.356-1.089-1.147V9.2h1.7V7.8h-1.7v-2Z" transform="translate(-60.154 -4.676)"/>
        <rect id="Rectangle_3" data-name="Rectangle 3" width="259.46" height="57.841" rx="28.921" transform="translate(3.305 595.207)" fill="#28ea1b"/>
        <path id="Path_4" data-name="Path 4" d="M48.958,15.916,44,10.958,48.958,6" transform="translate(-40.695 -4.906)" fill="none" stroke="#000" stroke-linecap="round" stroke-linejoin="round" stroke-width="2"/>
        <path id="Path_5" data-name="Path 5" d="M49.2,667.829v-8.786h3.189v-1.111H44.78v1.111H47.97v8.786Zm6.612.131c2.106,0,3.409-1.454,3.409-3.828s-1.3-3.827-3.409-3.827-3.409,1.448-3.409,3.827S53.711,667.959,55.816,667.959Zm0-1.064c-1.4,0-2.188-1.015-2.188-2.764s.789-2.764,2.188-2.764S58,662.376,58,664.132,57.216,666.9,55.816,666.9Zm5.755-8.375v1.914H60.378v.987h1.194v4.486c0,1.413.61,1.975,2.133,1.975a3.935,3.935,0,0,0,.693-.069v-.994a4.967,4.967,0,0,1-.549.027c-.768,0-1.1-.37-1.1-1.241v-4.185H64.4v-.987H62.751v-1.914Zm6.667,9.438a2.554,2.554,0,0,0,2.277-1.221h.11v1.091H71.75v-5.062c0-1.536-1.008-2.462-2.812-2.462-1.578,0-2.744.782-2.9,1.968H67.23c.165-.583.782-.919,1.667-.919,1.1,0,1.674.5,1.674,1.413v.673l-2.133.13c-1.722.1-2.7.864-2.7,2.188A2.249,2.249,0,0,0,68.238,667.959Zm.22-1.036c-.857,0-1.5-.439-1.5-1.193s.494-1.132,1.619-1.207l1.989-.131v.679A1.945,1.945,0,0,1,68.457,666.923Zm5.542.906h1.18V657.5H74Z" transform="translate(-40.83 -118.068)"/>
        <path id="Path_6" data-name="Path 6" d="M282.472,660.222h2.148a2.146,2.146,0,0,1,2.281-2.272,1.993,1.993,0,0,1,2.139,2.059c0,.977-.391,1.589-2.006,3.223L282.6,667.7v1.544h8.894v-1.9H285.7v-.15l2.752-2.708c2.2-2.157,2.849-3.2,2.849-4.687,0-2.13-1.731-3.684-4.279-3.684C284.353,656.112,282.472,657.8,282.472,660.222Zm14.521,3.3H298.6c1.58,0,2.538.79,2.538,2.077,0,1.243-1.038,2.076-2.512,2.076s-2.485-.763-2.583-1.953h-2.192c.107,2.317,2.015,3.835,4.8,3.835,2.769,0,4.828-1.6,4.828-3.8a3.039,3.039,0,0,0-2.831-3.142v-.15a2.948,2.948,0,0,0,2.334-2.929c.009-1.838-1.527-3.427-4.252-3.427-2.778,0-4.517,1.572-4.633,3.817h2.148a2.09,2.09,0,0,1,2.361-1.988,1.94,1.94,0,0,1,2.166,1.891,2.015,2.015,0,0,1-2.219,1.98h-1.563Zm9.7,9.1,1.536-5.335H306l-.826,5.335Zm8.459-3.062c3.062,0,4.883-2.476,4.883-6.72s-1.847-6.729-4.883-6.729-4.891,2.477-4.891,6.71C310.263,667.075,312.083,669.56,315.154,669.56Zm0-1.855c-1.624,0-2.574-1.686-2.574-4.883,0-3.169.968-4.846,2.574-4.846s2.566,1.669,2.566,4.846C317.72,666.027,316.778,667.705,315.154,667.705Zm12.09,1.855c3.062,0,4.882-2.476,4.882-6.72s-1.846-6.729-4.882-6.729-4.891,2.477-4.891,6.71C322.353,667.075,324.172,669.56,327.244,669.56Zm0-1.855c-1.625,0-2.574-1.686-2.574-4.883,0-3.169.968-4.846,2.574-4.846s2.566,1.669,2.566,4.846C329.809,666.027,328.868,667.705,327.244,667.705Zm12.09,1.855c3.062,0,4.882-2.476,4.882-6.72s-1.846-6.729-4.882-6.729-4.891,2.477-4.891,6.71C334.442,667.075,336.262,669.56,339.333,669.56Zm0-1.855c-1.625,0-2.574-1.686-2.574-4.883,0-3.169.968-4.846,2.574-4.846s2.566,1.669,2.566,4.846C341.9,666.027,340.958,667.705,339.333,667.705Z" transform="translate(-82.116 -117.827)"/>
        <rect id="Rectangle_5" data-name="Rectangle 5" width="33.052" height="33.052" rx="10" transform="translate(42.142 133.303)" fill="#4faf62"/>
        <rect id="Rectangle_4" data-name="Rectangle 4" width="260.286" height="155.392" rx="20" transform="translate(0 169.613)" fill="#fff"/>
        <line id="Line_4" data-name="Line 4" x2="191.703" transform="translate(42.142 178.543)" fill="none" stroke="#000" stroke-width="0.5" opacity="0.3"/>
        <circle id="Ellipse_1" data-name="Ellipse 1" cx="5.784" cy="5.784" r="5.784" transform="translate(17.766 142.805)" fill="none" stroke="#9f9f9f" stroke-width="1"/>
        <circle id="Ellipse_2" data-name="Ellipse 2" cx="2.892" cy="2.892" r="2.892" transform="translate(20.658 145.697)" fill="#4e92d4"/>
        <path id="Path_16" data-name="Path 16" d="M8.263,0H24.789a8.263,8.263,0,0,1,8.263,8.263V24.789a8.263,8.263,0,0,1-8.263,8.263H8.263A8.263,8.263,0,0,1,0,24.789V8.263A8.263,8.263,0,0,1,8.263,0Z" transform="translate(42.142 191.144)" fill="#28ea1b"/>
        <circle id="Ellipse_3" data-name="Ellipse 3" cx="5.784" cy="5.784" r="5.784" transform="translate(17.766 200.647)" fill="none" stroke="#9f9f9f" stroke-width="1"/>
        <path id="Path_10" data-name="Path 10" d="M104,227.653A1.653,1.653,0,0,1,105.653,226h9.916a1.653,1.653,0,0,1,1.653,1.653v6.61a1.653,1.653,0,0,1-1.653,1.653h-9.916A1.653,1.653,0,0,1,104,234.263Zm2.066.826a.412.412,0,0,0-.413.413v.826a.412.412,0,0,0,.413.413h1.653a.412.412,0,0,0,.413-.413v-.826a.412.412,0,0,0-.413-.413Zm0,2.479a.413.413,0,1,0,0,.826H110.2a.413.413,0,1,0,0-.826Zm0,1.653a.413.413,0,1,0,0,.826h.826a.413.413,0,1,0,0-.826Zm2.479,0a.413.413,0,1,0,0,.826h.826a.413.413,0,1,0,0-.826Zm2.479,0a.413.413,0,1,0,0,.826h.826a.413.413,0,1,0,0-.826Zm2.479,0a.413.413,0,1,0,0,.826h.826a.413.413,0,1,0,0-.826Z" transform="translate(-51.117 -81.955)" fill="#fff" fill-rule="evenodd"/>
        <path id="Path_11" data-name="Path 11" d="M109.784,294,104,297.305v.826h11.568v-.826Zm-4.132,4.958-.165,5.784h2.066l-.248-5.784Zm3.305,0-.165,5.784h2.066l-.248-5.784Zm3.305,0-.165,5.784h2.066l-.248-5.784ZM104,307.221h11.568v-1.653H104Z" transform="translate(-51.117 -93.766)" fill="#fff"/>
        <g id="Group_5" data-name="Group 5" transform="translate(3.887 137.172)">
          <rect id="Rectangle_8" data-name="Rectangle 8" width="260.286" height="128.903" rx="20" transform="translate(0.245 236.585)" fill="#fff"/>
          <text id="Vipps" transform="translate(80.852 73.155)" fill="#707070" font-size="15" font-family="SegoeUI, Segoe UI"><tspan x="0" y="0">Vipps</tspan></text>
          <text id="Credit_debit_card" data-name="Credit / debit card" transform="translate(80.852 16.155)" fill="#707070" font-size="15" font-family="SegoeUI, Segoe UI"><tspan x="0" y="0">Credit / debit card</tspan></text>
          <line id="Line_5" data-name="Line 5" x2="191.703" transform="translate(42.386 195.89)" fill="none" stroke="#000" stroke-width="0.5" opacity="0.3"/>
          <text id="Pick-up" transform="translate(-0.148 128.155)" fill="#707070" font-size="25" font-family="TimesNewRomanPSMT, Times New Roman" style="mix-blend-mode: darken;isolation: isolate"><tspan x="0" y="0">Pick-up</tspan></text>
          <text id="Location:_Holbergs_plass_1_0166_Oslo" data-name="Location: Holbergs plass 1, 0166 Oslo" transform="translate(10.852 167.155)" font-size="15" font-family="TimesNewRomanPSMT, Times New Roman"><tspan x="0" y="0">Location: Holbergs plass 1, 0166 Oslo</tspan></text>
          <text id="Item:_Garlic_baked_Salmon" data-name="Item: Garlic baked Salmon" transform="translate(10.852 229.155)" font-size="15" font-family="TimesNewRomanPSMT, Times New Roman"><tspan x="0" y="0">Item: Garlic baked Salmon</tspan></text>
          <text id="Choose_time" data-name="Choose time" transform="translate(10.852 295.155)" font-size="15" font-family="TimesNewRomanPS-BoldMT, Times New Roman" font-weight="700"><tspan x="0" y="0">Choose time</tspan></text>
        </g>
        <text id="Payment" transform="translate(0.739 61.328)" fill="#010003" font-size="30" font-family="Verdana"><tspan x="0" y="0">Payment</tspan></text>
        <text id="Payment_options" data-name="Payment options" transform="translate(3.739 99.328)" fill="#707070" font-size="25" font-family="TimesNewRomanPSMT, Times New Roman" style="mix-blend-mode: darken;isolation: isolate"><tspan x="0" y="0">Payment options</tspan></text>
        <g id="choose_time-2" data-name="choose time" transform="translate(27.143 466.038)">
          <path id="Path_15" data-name="Path 15" d="M0,11.305A3.305,3.305,0,0,1,3.305,8H208.229a3.305,3.305,0,1,1,0,6.61H3.305A3.305,3.305,0,0,1,0,11.305Z" transform="translate(0.383 -1.392)" fill="rgba(48,127,226,0.3)"/>
          <rect id="Rectangle_12" data-name="Rectangle 12" width="76" height="6" rx="3" transform="translate(-0.404 7.29)" fill="#4e92d4"/>
          <ellipse id="Ellipse_14" data-name="Ellipse 14" cx="9.5" cy="10" rx="9.5" ry="10" transform="translate(56.596 0.29)" fill="#4e92d4"/>
          <text id="_18:30" data-name="18:30" transform="translate(-0.404 -3.71)" fill="#707070" font-size="15" font-family="SegoeUI, Segoe UI"><tspan x="0" y="0">18:30</tspan></text>
          <text id="_20:00" data-name="20:00" transform="translate(173.596 -3.71)" fill="#707070" font-size="15" font-family="SegoeUI, Segoe UI"><tspan x="0" y="0">20:00</tspan></text>
          <text id="_20:00-2" data-name="20:00" transform="translate(173.596 -3.71)" fill="#707070" font-size="15" font-family="SegoeUI, Segoe UI"><tspan x="0" y="0">20:00</tspan></text>
          <g transform="matrix(1, 0, 0, 1, -81.4, -585.71)" filter="url(#_19:00)">
            <text id="_19:00-2" data-name="19:00" transform="translate(126 622)" fill="#707070" stroke="#000" stroke-width="1" font-size="15" font-family="SegoeUI, Segoe UI"><tspan x="0" y="0">19:00</tspan></text>
          </g>
        </g>
      </g>
    </g>
    <line id="Line_7" data-name="Line 7" x2="270" transform="translate(57.534 226.734)" fill="none" stroke="#000" stroke-width="0.5" opacity="0.3"/>
    <text id="Proceed_to_payment" data-name="Proceed to payment" transform="translate(116 749)" fill="#fff" font-size="18" font-family="TimesNewRomanPSMT, Times New Roman"><tspan x="0" y="0">Proceed to payment</tspan></text>
    <text id="_3" data-name="3" transform="translate(175 47)" fill="#4faf62" font-size="40" font-family="Tahoma-Bold, Tahoma" font-weight="700"><tspan x="0" y="0">3</tspan></text>
    <rect id="Rectangle_13" data-name="Rectangle 13" width="124.46" height="34.841" rx="17.421" transform="translate(166.566 498)" fill="#4e92d4"/>
    <text id="Change_order" data-name="Change order" transform="translate(188 520)" fill="#fff" font-size="15" font-family="TimesNewRomanPSMT, Times New Roman"><tspan x="0" y="0">Change order</tspan></text>
  </g>
</svg>
