<svg xmlns="http://www.w3.org/2000/svg" xmlns:xlink="http://www.w3.org/1999/xlink" width="375" height="812" viewBox="0 0 375 812">
  <defs>
    <clipPath id="clip-app_consumer1">
      <rect width="375" height="812"/>
    </clipPath>
  </defs>
  <g id="app_consumer1" clip-path="url(#clip-app_consumer1)">
    <rect width="375" height="812" fill="#fff"/>
    <g id="Content" transform="translate(-183 180.221)">
      <g id="iPhone" transform="translate(186.514 -125)">
        <path id="Bezel" d="M1304.625,986.939V868.9c0-30.31-24.139-54.9-53.905-54.9H994.46c-29.766,0-53.889,24.592-53.889,54.9v46.732A5.342,5.342,0,0,0,937,920.683v18.663a5.348,5.348,0,0,0,3.571,5.068v21.733A5.349,5.349,0,0,0,937,971.215v47.4a5.327,5.327,0,0,0,3.571,5.052v13.888A5.343,5.343,0,0,0,937,1042.6V1090a5.348,5.348,0,0,0,3.571,5.068V1512.1c0,30.322,24.127,54.9,53.889,54.9h256.26c29.771,0,53.905-24.588,53.905-54.919V1076.7a5.325,5.325,0,0,0,3.858-5.149V992.088A5.325,5.325,0,0,0,1304.625,986.939Zm-7.127,525.809c0,26.281-20.918,47.593-46.714,47.593H994.412c-25.812,0-46.73-21.311-46.73-47.593v-644.5c0-26.281,20.918-47.593,46.73-47.593h256.372c25.8,0,46.714,21.311,46.714,47.593Z" transform="translate(-936.997 -813.997)"/>
        <path id="Bezel-2" data-name="Bezel" d="M1277.3,836H1021.4c-25.765,0-46.644,21.3-46.644,47.566V1527.7c0,26.267,20.879,47.566,46.644,47.566h255.9c25.749,0,46.628-21.3,46.628-47.566V883.561C1323.923,857.294,1303.044,836,1277.3,836Zm36.554,693c0,19.205-15.261,34.773-34.1,34.773H1018.932c-18.826,0-34.088-15.568-34.088-34.773V882.263c0-19.205,15.262-34.773,34.088-34.773h35.122v.292a4.947,4.947,0,0,1,4.885,4.984,21.21,21.21,0,0,0,6.031,14.87,20.342,20.342,0,0,0,14.561,6.153h138.722a20.81,20.81,0,0,0,20.593-21.023,5.037,5.037,0,0,1,1.448-3.523,4.836,4.836,0,0,1,3.453-1.461v-.292h36c18.842,0,34.1,15.568,34.1,34.773Z" transform="translate(-963.603 -829.499)" fill="#010003"/>
        <path id="Shape_5" data-name="Shape 5" d="M0,176.336V126.751a3.952,3.952,0,0,1,3.9-4v57.583A3.952,3.952,0,0,1,0,176.336ZM367.583,71.72a3.952,3.952,0,0,1,3.9,4v82.116a3.952,3.952,0,0,1-3.9,4ZM0,104.378V54.793a3.952,3.952,0,0,1,3.9-4v57.583A3.952,3.952,0,0,1,0,104.378ZM0,24.959V4A3.952,3.952,0,0,1,3.9,0V28.958A3.952,3.952,0,0,1,0,24.959Z" transform="translate(0 100.671)"/>
        <path id="Shape_6" data-name="Shape 6" d="M.314,18.328a6.458,6.458,0,0,1,4.1-8.121,6.371,6.371,0,0,1,8.045,4.136,6.458,6.458,0,0,1-4.1,8.121,6.326,6.326,0,0,1-1.975.317A6.392,6.392,0,0,1,.314,18.328ZM111.58,15.736a6.444,6.444,0,1,1,6.444,6.385A6.414,6.414,0,0,1,111.58,15.736ZM58.493,18.285a3,3,0,0,1,0-5.995H97.685a3,3,0,0,1,0,5.995ZM58.048,8.093a4.047,4.047,0,0,1,0-8.093H98.131a4.047,4.047,0,0,1,0,8.093Z" transform="translate(106.783 14.616)" fill="#484450"/>
      </g>
      <g id="Group_3" data-name="Group 3" transform="translate(237.261 -60.548)">
        <rect id="Rectangle_13" data-name="Rectangle 13" width="259.46" height="57.841" rx="28.921" transform="translate(3.305 595.207)" fill="#4faf62"/>
        <text id="Proceed" transform="translate(93.739 632.328)" fill="#fff" font-size="20" font-family="Verdana"><tspan x="0" y="0">Proceed</tspan></text>
      </g>
      <rect id="Rectangle_8" data-name="Rectangle 8" width="260.286" height="128.903" rx="20" transform="translate(241.392 313.209)" fill="#fff"/>
      <g id="Group_1" data-name="Group 1">
        <line id="Line_8" data-name="Line 8" x2="270" transform="translate(240.534 46.514)" fill="none" stroke="#000" stroke-width="0.5" opacity="0.3"/>
        <text id="Gender" transform="translate(241 38.779)" fill="#707070" font-size="25" font-family="Verdana" style="mix-blend-mode: darken;isolation: isolate"><tspan x="0" y="0">Gender</tspan></text>
        <text id="Please_insert_info" data-name="Please insert info" transform="translate(238 0.779)" font-size="30" font-family="Verdana"><tspan x="0" y="0">Please insert info</tspan></text>
        <path id="Path_4" data-name="Path 4" d="M48.958,15.916,44,10.958,48.958,6" transform="translate(196.566 -65.454)" fill="none" stroke="#000" stroke-linecap="round" stroke-linejoin="round" stroke-width="2"/>
      </g>
    </g>
    <g id="Group_2" data-name="Group 2" transform="translate(0 -66)">
      <circle id="Ellipse_4" data-name="Ellipse 4" cx="7" cy="7" r="7" transform="translate(56.5 318.824)" fill="none" stroke="#9f9f9f" stroke-width="1"/>
      <rect id="Rectangle_14" data-name="Rectangle 14" width="40" height="40" rx="10" transform="translate(86 307.324)" fill="#4faf62"/>
      <rect id="Rectangle_15" data-name="Rectangle 15" width="40" height="40" rx="10" transform="translate(86 377.324)" fill="#bce2a3"/>
      <circle id="Ellipse_1" data-name="Ellipse 1" cx="7" cy="7" r="7" transform="translate(56.5 388.824)" fill="none" stroke="#9f9f9f" stroke-width="1"/>
      <text id="Female" transform="translate(138 404)" fill="#707070" font-size="20" font-family="Verdana"><tspan x="0" y="0">Female</tspan></text>
      <text id="Male" transform="translate(138 334)" fill="#707070" font-size="20" font-family="Verdana"><tspan x="0" y="0">Male</tspan></text>
      <rect id="Rectangle_16" data-name="Rectangle 16" width="40" height="40" rx="10" transform="translate(86 451.324)" fill="#28ea1b"/>
      <text id="Other" transform="translate(138 478)" fill="#707070" font-size="20" font-family="Verdana"><tspan x="0" y="0">Other</tspan></text>
      <circle id="Ellipse_2" data-name="Ellipse 2" cx="3.5" cy="3.5" r="3.5" transform="translate(60 466.324)" fill="#4e92d4"/>
      <circle id="Ellipse_3" data-name="Ellipse 3" cx="7" cy="7" r="7" transform="translate(56.5 462.824)" fill="none" stroke="#9f9f9f" stroke-width="1"/>
    </g>
    <line id="Line_9" data-name="Line 9" x2="170" transform="translate(126.5 534.5)" fill="none" stroke="#707070" stroke-width="1"/>
    <text id="insert_number" data-name="insert number" transform="translate(127 526)" fill="#a7a7a7" font-size="20" font-family="Verdana"><tspan x="0" y="0">insert number</tspan></text>
    <text id="kg." transform="translate(296 527)" fill="#707070" font-size="20" font-family="SegoeUI, Segoe UI"><tspan x="0" y="0">kg.</tspan></text>
    <text id="Age" transform="translate(40 593)" fill="#707070" font-size="20" font-family="Verdana"><tspan x="0" y="0">Age</tspan></text>
    <line id="Line_10" data-name="Line 10" x2="170" transform="translate(126.5 593.5)" fill="none" stroke="#707070" stroke-width="1"/>
    <text id="years." transform="translate(296 586)" fill="#707070" font-size="20" font-family="SegoeUI, Segoe UI"><tspan x="0" y="0">years.</tspan></text>
    <text id="Allergies" transform="translate(32 648)" fill="#707070" font-size="20" font-family="Verdana"><tspan x="0" y="0">Allergies</tspan></text>
    <line id="Line_11" data-name="Line 11" x2="170" transform="translate(122.5 651.5)" fill="none" stroke="#707070" stroke-width="1"/>
    <text id="Weight" transform="translate(40 529)" fill="#707070" font-size="20" font-family="Verdana"><tspan x="0" y="0">Weight</tspan></text>
    <text id="_1" data-name="1" transform="translate(175 43)" fill="#4faf62" font-size="40" font-family="Tahoma-Bold, Tahoma" font-weight="700"><tspan x="0" y="0">1</tspan></text>
    <text id="insert_number-2" data-name="insert number" transform="translate(127 585)" fill="#a7a7a7" font-size="20" font-family="Verdana"><tspan x="0" y="0">insert number</tspan></text>
    <text id="insert_here" data-name="insert here" transform="translate(127 644)" fill="#a7a7a7" font-size="20" font-family="Verdana"><tspan x="0" y="0">insert here</tspan></text>
  </g>
</svg>
