<svg xmlns="http://www.w3.org/2000/svg" xmlns:xlink="http://www.w3.org/1999/xlink" width="375" height="812" viewBox="0 0 375 812">
  <defs>
    <filter id="_19:00" x="116" y="454" width="74" height="42" filterUnits="userSpaceOnUse">
      <feOffset dy="3" input="SourceAlpha"/>
      <feGaussianBlur stdDeviation="3" result="blur"/>
      <feFlood flood-opacity="0.161"/>
      <feComposite operator="in" in2="blur"/>
      <feComposite in="SourceGraphic"/>
    </filter>
    <clipPath id="clip-app_consumer3">
      <rect width="375" height="812"/>
    </clipPath>
  </defs>
  <g id="app_consumer3" clip-path="url(#clip-app_consumer3)">
    <rect width="375" height="812" fill="#fff"/>
    <g id="Content" transform="translate(-183 180.221)">
      <g id="iPhone" transform="translate(186.514 -125)">
        <path id="Bezel" d="M1304.625,986.939V868.9c0-30.31-24.139-54.9-53.905-54.9H994.46c-29.766,0-53.889,24.592-53.889,54.9v46.732A5.342,5.342,0,0,0,937,920.683v18.663a5.348,5.348,0,0,0,3.571,5.068v21.733A5.349,5.349,0,0,0,937,971.215v47.4a5.327,5.327,0,0,0,3.571,5.052v13.888A5.343,5.343,0,0,0,937,1042.6V1090a5.348,5.348,0,0,0,3.571,5.068V1512.1c0,30.322,24.127,54.9,53.889,54.9h256.26c29.771,0,53.905-24.588,53.905-54.919V1076.7a5.325,5.325,0,0,0,3.858-5.149V992.088A5.325,5.325,0,0,0,1304.625,986.939Zm-7.127,525.809c0,26.281-20.918,47.593-46.714,47.593H994.412c-25.812,0-46.73-21.311-46.73-47.593v-644.5c0-26.281,20.918-47.593,46.73-47.593h256.372c25.8,0,46.714,21.311,46.714,47.593Z" transform="translate(-936.997 -813.997)"/>
        <path id="Bezel-2" data-name="Bezel" d="M1277.3,836H1021.4c-25.765,0-46.644,21.3-46.644,47.566V1527.7c0,26.267,20.879,47.566,46.644,47.566h255.9c25.749,0,46.628-21.3,46.628-47.566V883.561C1323.923,857.294,1303.044,836,1277.3,836Zm36.554,693c0,19.205-15.261,34.773-34.1,34.773H1018.932c-18.826,0-34.088-15.568-34.088-34.773V882.263c0-19.205,15.262-34.773,34.088-34.773h35.122v.292a4.947,4.947,0,0,1,4.885,4.984,21.21,21.21,0,0,0,6.031,14.87,20.342,20.342,0,0,0,14.561,6.153h138.722a20.81,20.81,0,0,0,20.593-21.023,5.037,5.037,0,0,1,1.448-3.523,4.836,4.836,0,0,1,3.453-1.461v-.292h36c18.842,0,34.1,15.568,34.1,34.773Z" transform="translate(-963.603 -829.499)" fill="#010003"/>
        <path id="Shape_5" data-name="Shape 5" d="M0,176.336V126.751a3.952,3.952,0,0,1,3.9-4v57.583A3.952,3.952,0,0,1,0,176.336ZM367.583,71.72a3.952,3.952,0,0,1,3.9,4v82.116a3.952,3.952,0,0,1-3.9,4ZM0,104.378V54.793a3.952,3.952,0,0,1,3.9-4v57.583A3.952,3.952,0,0,1,0,104.378ZM0,24.959V4A3.952,3.952,0,0,1,3.9,0V28.958A3.952,3.952,0,0,1,0,24.959Z" transform="translate(0 100.671)"/>
        <path id="Shape_6" data-name="Shape 6" d="M.314,18.328a6.458,6.458,0,0,1,4.1-8.121,6.371,6.371,0,0,1,8.045,4.136,6.458,6.458,0,0,1-4.1,8.121,6.326,6.326,0,0,1-1.975.317A6.392,6.392,0,0,1,.314,18.328ZM111.58,15.736a6.444,6.444,0,1,1,6.444,6.385A6.414,6.414,0,0,1,111.58,15.736ZM58.493,18.285a3,3,0,0,1,0-5.995H97.685a3,3,0,0,1,0,5.995ZM58.048,8.093a4.047,4.047,0,0,1,0-8.093H98.131a4.047,4.047,0,0,1,0,8.093Z" transform="translate(106.783 14.616)" fill="#484450"/>
      </g>
      <g id="Group_1" data-name="Group 1" transform="translate(237.261 -60.548)">
        <text id="Total" transform="translate(-9.261 580.328)" font-size="20" font-family="Verdana"><tspan x="0" y="0">Total</tspan></text>
        <text id="_24_00" data-name="24,00" transform="translate(216.739 580.328)" font-size="20" font-family="Verdana"><tspan x="0" y="0">24,00</tspan></text>
        <rect id="Rectangle_3" data-name="Rectangle 3" width="259.46" height="57.841" rx="28.921" transform="translate(3.305 595.207)" fill="#4faf62"/>
        <path id="Path_4" data-name="Path 4" d="M48.958,15.916,44,10.958,48.958,6" transform="translate(-40.695 -4.906)" fill="none" stroke="#000" stroke-linecap="round" stroke-linejoin="round" stroke-width="2"/>
        <g id="choose_time" data-name="choose time" transform="translate(27.143 323.038)">
          <path id="Path_15" data-name="Path 15" d="M0,11.305A3.305,3.305,0,0,1,3.305,8H208.229a3.305,3.305,0,1,1,0,6.61H3.305A3.305,3.305,0,0,1,0,11.305Z" transform="translate(0.383 -1.392)" fill="rgba(48,127,226,0.3)"/>
          <rect id="Rectangle_12" data-name="Rectangle 12" width="76" height="6" rx="3" transform="translate(-0.404 7.29)" fill="#4e92d4"/>
          <ellipse id="Ellipse_14" data-name="Ellipse 14" cx="9.5" cy="10" rx="9.5" ry="10" transform="translate(56.596 0.29)" fill="#4e92d4"/>
          <text id="_18:30" data-name="18:30" transform="translate(-0.404 -3.71)" fill="#707070" font-size="18" font-family="Verdana"><tspan x="0" y="0">18:30</tspan></text>
          <text id="_20:00" data-name="20:00" transform="translate(157.596 -3.71)" fill="#707070" font-size="18" font-family="Verdana"><tspan x="0" y="0">20:00</tspan></text>
          <g transform="matrix(1, 0, 0, 1, -81.4, -442.71)" filter="url(#_19:00)">
            <text id="_19:00-2" data-name="19:00" transform="translate(126 479)" fill="#707070" stroke="#000" stroke-width="1" font-size="18" font-family="Verdana"><tspan x="0" y="0">19:00</tspan></text>
          </g>
          <text id="Choose_time-2" data-name="Choose time" transform="translate(-12.404 -30.71)" font-size="20" font-family="Verdana-Bold, Verdana" font-weight="700"><tspan x="0" y="0">Choose time</tspan></text>
        </g>
        <g id="Group_5" data-name="Group 5" transform="translate(3.887 -39.828)">
          <line id="Line_5" data-name="Line 5" x2="191.703" transform="translate(42.386 201.89)" fill="none" stroke="#000" stroke-width="0.5" opacity="0.3"/>
          <text id="Suggested_order" data-name="Suggested order" transform="translate(-0.148 134.155)" fill="#707070" font-size="25" font-family="Verdana" style="mix-blend-mode: darken;isolation: isolate"><tspan x="0" y="0">Suggested order</tspan></text>
          <text id="Location:_Pilestredet_31_0166_Oslo" data-name="Location: Pilestredet 31, 
              0166 Oslo" transform="translate(10.852 163.155)" font-size="20" font-family="Verdana"><tspan x="0" y="0">Location: Pilestredet 31, </tspan><tspan x="0" y="24" xml:space="preserve">              0166 Oslo</tspan></text>
          <text id="Item:_Garlic_baked_Salmon" data-name="Item: Garlic baked Salmon" transform="translate(10.852 235.155)" font-size="20" font-family="Verdana"><tspan x="0" y="0">Item: Garlic baked Salmon</tspan></text>
          <rect id="Rectangle_13" data-name="Rectangle 13" width="124.46" height="34.841" rx="17.421" transform="translate(108.418 247.155)" fill="#4e92d4"/>
          <text id="Change_order" data-name="Change order" transform="translate(119.852 270.155)" fill="#fff" font-size="15" font-family="Verdana"><tspan x="0" y="0">Change order</tspan></text>
        </g>
        <text id="Order" transform="translate(0.739 61.328)" fill="#010003" font-size="30" font-family="Verdana"><tspan x="0" y="0">Order</tspan></text>
      </g>
    </g>
    <text id="Proceed_to_payment" data-name="Proceed to payment" transform="translate(108 749)" fill="#fff" font-size="20" font-family="TimesNewRomanPSMT, Times New Roman"><tspan x="0" y="0">Proceed to payment</tspan></text>
    <text id="_3" data-name="3" transform="translate(175 47)" fill="#4faf62" font-size="40" font-family="Tahoma-Bold, Tahoma" font-weight="700"><tspan x="0" y="0">3</tspan></text>
    <g id="Group_6" data-name="Group 6" transform="translate(54.261 432.672)">
      <rect id="Rectangle_5" data-name="Rectangle 5" width="33.052" height="33.052" rx="10" transform="translate(42.142 133.303)" fill="#4faf62"/>
      <line id="Line_4" data-name="Line 4" x2="191.703" transform="translate(42.142 178.543)" fill="none" stroke="#000" stroke-width="0.5" opacity="0.3"/>
      <circle id="Ellipse_1" data-name="Ellipse 1" cx="5.784" cy="5.784" r="5.784" transform="translate(17.766 142.805)" fill="none" stroke="#9f9f9f" stroke-width="1"/>
      <circle id="Ellipse_2" data-name="Ellipse 2" cx="2.892" cy="2.892" r="2.892" transform="translate(20.658 145.697)" fill="#4e92d4"/>
      <path id="Path_16" data-name="Path 16" d="M8.263,0H24.789a8.263,8.263,0,0,1,8.263,8.263V24.789a8.263,8.263,0,0,1-8.263,8.263H8.263A8.263,8.263,0,0,1,0,24.789V8.263A8.263,8.263,0,0,1,8.263,0Z" transform="translate(42.142 191.144)" fill="#28ea1b"/>
      <circle id="Ellipse_3" data-name="Ellipse 3" cx="5.784" cy="5.784" r="5.784" transform="translate(17.766 200.647)" fill="none" stroke="#9f9f9f" stroke-width="1"/>
      <path id="Path_10" data-name="Path 10" d="M104,227.653A1.653,1.653,0,0,1,105.653,226h9.916a1.653,1.653,0,0,1,1.653,1.653v6.61a1.653,1.653,0,0,1-1.653,1.653h-9.916A1.653,1.653,0,0,1,104,234.263Zm2.066.826a.412.412,0,0,0-.413.413v.826a.412.412,0,0,0,.413.413h1.653a.412.412,0,0,0,.413-.413v-.826a.412.412,0,0,0-.413-.413Zm0,2.479a.413.413,0,1,0,0,.826H110.2a.413.413,0,1,0,0-.826Zm0,1.653a.413.413,0,1,0,0,.826h.826a.413.413,0,1,0,0-.826Zm2.479,0a.413.413,0,1,0,0,.826h.826a.413.413,0,1,0,0-.826Zm2.479,0a.413.413,0,1,0,0,.826h.826a.413.413,0,1,0,0-.826Zm2.479,0a.413.413,0,1,0,0,.826h.826a.413.413,0,1,0,0-.826Z" transform="translate(-51.117 -81.955)" fill="#fff" fill-rule="evenodd"/>
      <path id="Path_11" data-name="Path 11" d="M109.784,294,104,297.305v.826h11.568v-.826Zm-4.132,4.958-.165,5.784h2.066l-.248-5.784Zm3.305,0-.165,5.784h2.066l-.248-5.784Zm3.305,0-.165,5.784h2.066l-.248-5.784ZM104,307.221h11.568v-1.653H104Z" transform="translate(-51.117 -93.766)" fill="#fff"/>
      <text id="Payment_options" data-name="Payment options" transform="translate(3.739 99.328)" fill="#707070" font-size="25" font-family="Verdana" style="mix-blend-mode: darken;isolation: isolate"><tspan x="0" y="0">Payment options</tspan></text>
      <line id="Line_7" data-name="Line 7" x2="270" transform="translate(3.273 107.062)" fill="none" stroke="#000" stroke-width="0.5" opacity="0.3"/>
      <text id="Credit_debit_card" data-name="Credit / debit card" transform="translate(84.739 153.328)" fill="#707070" font-size="20" font-family="Verdana"><tspan x="0" y="0">Credit / debit card</tspan></text>
      <text id="Vipps" transform="translate(84.739 210.328)" fill="#707070" font-size="20" font-family="Verdana"><tspan x="0" y="0">Vipps</tspan></text>
    </g>
  </g>
</svg>
