<?xml version="1.0" encoding="utf-8"?>
<!-- Generator: Adobe Illustrator 24.2.3, SVG Export Plug-In . SVG Version: 6.00 Build 0)  -->
<svg version="1.1" id="Layer_1" xmlns="http://www.w3.org/2000/svg" xmlns:xlink="http://www.w3.org/1999/xlink" x="0px" y="0px"
	 viewBox="0 0 1205.27 1068.81" style="enable-background:new 0 0 1205.27 1068.81;" xml:space="preserve">
<style type="text/css">
	.st0{fill:#FFFFFF;}
</style>
<path d="M1202.91,621.57c4.91,27.69,2.99,52.84-13.88,75.22c-7.32,9.72-17.26,18.11-27.45,24.94
	c-124.35,83.32-249.12,166.01-373.39,249.44c-26.95,18.09-54.32,22.56-85.54,13.38c-90.73-26.7-181.96-51.72-272.57-78.82
	c-25.96-7.76-47.39-5.24-68.23,15.84c3.34,5.43,6.26,10.47,9.46,15.33c8.83,13.38,7.41,24.91-6.21,34.02
	c-46.36,30.98-92.75,61.92-139.22,92.74c-12.38,8.21-23.6,6.84-32.45-5.69c-5.08-7.19-12.39-14.14-13.93-22.13
	c-1.81-9.34,1.57-19.69,2.7-29.59c9.79,1.46,19.65,2.57,29.31,4.64c2.18,0.47,3.64,4.31,6.6,8.1
	c36.24-24.17,71.49-47.68,109.09-72.75C271.55,862.68,216.46,779.97,159.6,694.6c-36.66,24.42-72.28,48.15-109.68,73.06
	c30.11,45.17,59.32,88.98,88.5,132.8c5.69,8.55,14.01,16.59,16.07,25.97c1.98,9.02-2.58,19.48-4.26,29.3
	c-9.7-2.11-24.19-0.87-28.36-6.84C81.55,891.18,42.79,832.35,4.02,773.55c-7.87-11.93-3.59-22.72,7.72-30.33
	c45.06-30.29,89.5-61.63,135.82-89.87c18.84-11.49,24.96-15.38,48.62,19.08c16.78-10.91,33.74-21.78,50.55-32.88
	c34.22-22.6,67.58-46.62,102.75-67.62c36.97-22.07,76.53-18.71,116.2-5.89c102.36,33.08,205.02,65.27,307.24,98.79
	c45.39,14.89,69.25,61.21,56.51,105.22c-12.64,43.68-55.45,69.95-101.62,59.13c-54.23-12.7-107.8-28.25-161.69-42.45
	c-14.27-3.76-22.54-12.44-18.23-27.19c4-13.68,15.21-16.28,28.41-12.76c48.18,12.85,96.37,25.63,144.65,38.1
	c9.85,2.54,20.16,5.41,30.12,4.98c20.39-0.89,36.93-17.65,39.92-37.87c2.92-19.74-9.48-40.23-31.12-47.67
	c-37.43-12.86-75.28-24.52-112.98-36.6c-71.23-22.81-141.95-47.5-214.06-67.04c-19.52-5.29-46.72-0.86-64.46,9.38
	c-50.68,29.24-98.31,63.76-149.65,97.87c39.57,59.39,78.36,117.62,117.76,176.76c5.46-3.01,10.04-5.04,14.08-7.84
	c25.79-17.88,52.84-21.9,83.5-12.82c92.1,27.26,184.75,52.63,276.85,79.87c20.91,6.19,37.82,3.81,55.78-8.26
	c121.79-81.82,243.99-163.03,366.05-244.43c3.66-2.44,7.44-4.74,10.94-7.4c21.41-16.24,26.73-41.49,13.17-62.03
	c-14.24-21.57-40.22-26.89-63.78-11.5c-52.81,34.53-105.08,69.87-157.68,104.7c-13.76,9.11-29.93,24.5-43.22,3.49
	c-12.83-20.28,6.96-29.21,20.95-38.53c50.6-33.72,101.32-67.25,151.62-101.42c32.74-22.24,66.3-24.25,100.6-5.34
	c8.98,4.95,15.93,13.58,27.27,23.57"/>
<path d="M815.87,62.58c72.37-73.11,159.62-75.43,225.52-41.35c77.1,39.87,113.65,130.32,86.59,213.72
	c-22.4,69.07-69.55,120.82-124.7,164.13c-50.57,39.7-105.95,73.25-158.9,109.96c-17.64,12.23-32.56,10.9-51.99,0.86
	c-84.91-43.91-161.1-98.99-225.25-169.9c-34.83-38.5-62.92-81.39-70.02-134.52c-10.27-76.82,25.45-148.25,90.81-183.01
	c69.74-37.09,152.74-27.41,211.09,24.64C804.42,51.94,809.7,56.91,815.87,62.58z M535.67,176.56c0.13,48.89,21.09,86.31,48.73,120.5
	c60.54,74.9,138.68,127.89,221.51,174.54c5.78,3.25,17.59,2.11,23.29-1.8c54.94-37.63,110.7-74.34,163.09-115.32
	c38.17-29.86,69.46-67.6,89.78-112.63c22.61-50.09,19.57-99.3-12.76-143.81c-31.87-43.87-77.27-61.79-130.99-55.94
	c-43.29,4.71-76.4,27.42-102.04,62.15c-13.57,18.37-25.96,18.03-40.44,0.57c-7.48-9.01-14.68-18.51-23.43-26.16
	c-45.74-40.03-97.74-49.28-153.43-25.5C564.24,76.52,538.51,120.95,535.67,176.56z"/>
<path class="st0" d="M535.67,176.56c2.84-55.6,28.57-100.04,83.3-123.41c55.69-23.78,107.69-14.54,153.43,25.5
	c8.75,7.66,15.96,17.15,23.43,26.16c14.48,17.45,26.87,17.79,40.44-0.57c25.65-34.73,58.75-57.44,102.04-62.15
	c53.72-5.85,99.12,12.07,130.99,55.94c32.33,44.51,35.37,93.72,12.76,143.81c-20.32,45.03-51.62,82.77-89.78,112.63
	c-52.39,40.98-108.15,77.69-163.09,115.32c-5.71,3.91-17.52,5.06-23.29,1.8c-82.83-46.65-160.97-99.64-221.51-174.54
	C556.76,262.86,535.8,225.44,535.67,176.56z M586,170.37c-1.2,12.88,1.79,26.12,18.84,27.4c15.52,1.16,20.25-9.62,21.73-24.14
	c3.51-34.36,12.62-44.53,46.46-51.33c14.91-2.99,23.53-9.79,20.79-24.82c-2.63-14.43-14.38-16.55-27.32-15.35
	C620.57,86.38,587.18,122.14,586,170.37z"/>
<path d="M586,170.37c1.19-48.23,34.57-83.99,80.5-88.24c12.94-1.2,24.69,0.92,27.32,15.35c2.74,15.03-5.87,21.83-20.79,24.82
	c-33.84,6.8-42.95,16.97-46.46,51.33c-1.48,14.53-6.21,25.31-21.73,24.14C587.79,196.49,584.8,183.25,586,170.37z"/>
</svg>
